<svg id="svg" version="1.1" xmlns="http://www.w3.org/2000/svg" xmlns:xlink="http://www.w3.org/1999/xlink" width="400" height="475.5828220858896" viewBox="0, 0, 400,475.5828220858896"><g id="svgg"><path id="path0" d="M194.400 5.171 C 188.618 5.454,184.668 5.919,178.600 7.031 C 176.840 7.353,174.220 7.775,172.778 7.967 C 171.336 8.160,168.366 8.864,166.178 9.532 C 163.990 10.200,160.670 11.107,158.800 11.547 C 155.715 12.274,147.289 15.098,138.400 18.385 C 129.917 21.523,117.298 28.259,107.400 34.934 C 106.080 35.824,103.110 37.807,100.800 39.340 C 93.505 44.183,72.896 63.118,68.597 68.927 C 64.911 73.908,62.555 76.984,60.600 79.364 C 57.607 83.010,56.815 84.127,53.207 89.800 C 50.141 94.621,42.396 108.468,42.403 109.115 C 42.405 109.272,41.239 111.740,39.811 114.600 C 34.684 124.873,30.028 138.680,26.727 153.400 C 25.529 158.746,25.290 160.114,24.182 168.000 C 23.826 170.530,23.270 174.310,22.946 176.400 C 22.163 181.456,21.794 201.632,22.347 209.200 C 22.815 215.616,23.889 224.697,24.248 225.278 C 24.375 225.483,24.623 227.332,24.799 229.385 C 25.198 234.041,26.485 241.186,28.008 247.200 C 28.649 249.730,29.357 252.856,29.582 254.147 C 29.806 255.437,30.622 258.448,31.395 260.838 C 32.167 263.228,33.319 267.032,33.954 269.291 C 35.321 274.155,38.598 283.141,40.340 286.800 C 41.020 288.230,42.468 291.650,43.558 294.400 C 47.512 304.383,55.221 319.872,59.386 326.200 C 60.979 328.620,63.001 331.860,63.880 333.400 C 70.056 344.224,76.591 353.789,85.031 364.356 C 86.369 366.030,88.349 368.608,89.431 370.085 C 93.917 376.204,96.330 379.153,99.090 381.889 C 100.692 383.478,103.488 386.627,105.302 388.887 C 109.541 394.169,135.488 420.031,140.200 423.672 C 142.180 425.201,145.330 427.935,147.200 429.747 C 150.468 432.914,154.438 436.269,158.351 439.172 C 159.368 439.926,161.910 441.812,164.000 443.361 C 166.090 444.911,169.920 447.930,172.512 450.071 C 177.701 454.356,189.628 462.601,197.600 467.413 C 203.372 470.897,207.594 471.248,212.703 468.667 C 215.908 467.049,225.134 461.256,227.400 459.440 C 228.280 458.734,230.800 456.926,233.000 455.420 C 235.200 453.915,237.562 452.156,238.250 451.512 C 238.937 450.868,240.590 449.589,241.923 448.670 C 245.590 446.143,253.871 439.770,256.800 437.222 C 258.230 435.978,260.030 434.524,260.800 433.992 C 261.570 433.459,264.450 430.946,267.200 428.407 C 269.950 425.869,273.812 422.444,275.783 420.796 C 280.864 416.548,304.382 392.905,307.810 388.600 C 309.387 386.620,311.003 384.730,311.403 384.400 C 311.802 384.070,313.824 381.685,315.894 379.100 C 317.965 376.515,319.820 374.400,320.017 374.400 C 320.213 374.400,321.072 373.455,321.924 372.300 C 324.254 369.144,330.294 361.111,332.935 357.655 C 334.219 355.975,336.267 352.980,337.485 351.000 C 338.704 349.020,340.282 346.680,340.992 345.800 C 343.006 343.303,348.567 334.838,349.795 332.400 C 350.404 331.190,351.218 329.750,351.603 329.200 C 351.989 328.650,353.654 325.680,355.304 322.600 C 356.955 319.520,359.425 314.930,360.794 312.400 C 364.670 305.235,369.455 294.819,372.095 287.800 C 377.084 274.533,383.177 255.752,384.164 250.600 C 384.501 248.840,385.130 245.960,385.563 244.200 C 386.937 238.607,388.056 231.962,388.406 227.315 C 388.593 224.838,388.861 222.624,389.002 222.397 C 390.564 219.870,391.771 189.395,390.816 176.600 C 390.470 171.964,389.285 162.862,388.959 162.334 C 388.854 162.164,388.598 160.534,388.390 158.712 C 388.010 155.375,387.669 153.685,385.825 146.000 C 383.217 135.134,377.859 119.905,374.425 113.600 C 374.006 112.830,373.273 111.159,372.798 109.887 C 372.322 108.615,371.139 106.185,370.169 104.487 C 369.200 102.789,368.405 101.254,368.403 101.075 C 368.392 99.903,359.242 85.887,353.675 78.517 C 352.644 77.151,350.466 74.271,348.836 72.117 C 344.083 65.837,324.700 47.228,318.600 43.089 C 317.280 42.193,315.480 40.884,314.600 40.179 C 312.090 38.169,303.630 32.629,301.200 31.404 C 299.990 30.794,298.344 29.779,297.541 29.147 C 291.939 24.735,269.545 15.479,256.000 11.976 C 254.130 11.493,250.197 10.400,247.259 9.549 C 244.322 8.697,241.296 8.000,240.536 8.000 C 239.776 8.000,237.409 7.655,235.277 7.234 C 225.469 5.297,208.923 4.462,194.400 5.171 M217.178 36.796 C 218.326 37.014,222.111 37.381,225.590 37.612 C 229.069 37.842,232.519 38.210,233.257 38.428 C 233.996 38.647,237.030 39.360,240.000 40.014 C 250.551 42.336,261.093 45.662,266.000 48.217 C 267.430 48.962,270.490 50.474,272.800 51.579 C 292.581 61.037,313.453 77.371,325.329 92.686 C 330.621 99.510,334.755 105.375,336.485 108.508 C 337.428 110.217,339.157 113.097,340.327 114.908 C 346.537 124.520,355.192 147.825,356.816 159.305 C 357.026 160.792,357.375 162.772,357.592 163.705 C 360.045 174.273,359.928 205.807,357.397 216.200 C 357.075 217.520,356.810 219.146,356.806 219.813 C 356.803 220.480,356.526 222.010,356.191 223.213 C 355.857 224.416,354.976 227.650,354.234 230.400 C 352.689 236.126,351.255 240.500,349.513 244.800 C 348.844 246.450,347.629 249.510,346.812 251.600 C 344.911 256.463,343.309 259.606,341.041 262.919 C 340.044 264.374,338.701 266.608,338.056 267.883 C 331.857 280.124,311.448 303.597,307.413 303.126 C 305.940 302.954,305.135 303.600,304.291 305.633 C 303.565 307.383,301.973 308.694,300.159 309.034 C 299.069 309.239,298.800 309.476,298.800 310.234 C 298.800 311.247,297.854 311.888,295.000 312.810 C 294.115 313.095,292.774 314.010,292.000 314.856 C 289.239 317.873,267.659 329.412,259.537 332.214 C 240.105 338.920,228.908 340.878,208.717 341.103 C 200.498 341.194,193.110 341.092,191.317 340.862 C 179.193 339.306,170.409 337.468,158.800 334.057 C 155.389 333.055,150.938 331.258,146.988 329.289 C 145.235 328.415,142.073 326.950,139.963 326.034 C 133.442 323.203,121.177 315.746,120.462 314.177 C 120.210 313.622,119.552 313.205,118.672 313.040 C 116.791 312.687,115.200 311.373,115.200 310.171 C 115.200 309.354,115.005 309.200,113.974 309.200 C 111.787 309.200,109.411 307.472,108.995 305.579 C 108.696 304.217,106.977 303.000,105.553 303.144 C 103.028 303.398,92.489 292.783,84.163 281.600 C 77.711 272.933,76.799 271.623,75.372 268.973 C 74.551 267.448,73.208 265.114,72.389 263.788 C 70.443 260.638,68.381 256.489,67.027 253.000 C 66.430 251.460,65.161 248.310,64.208 246.000 C 63.256 243.690,62.025 240.450,61.474 238.800 C 60.923 237.150,60.117 234.810,59.683 233.600 C 58.079 229.130,56.359 222.649,55.984 219.664 C 55.772 217.974,55.415 215.963,55.191 215.196 C 52.900 207.361,52.894 171.520,55.183 163.641 C 55.400 162.893,55.768 160.913,56.001 159.241 C 56.719 154.075,61.099 140.430,65.534 129.542 C 73.352 110.345,86.253 92.114,102.259 77.641 C 115.310 65.840,114.526 66.453,124.800 60.014 C 129.898 56.819,136.840 52.999,140.400 51.429 C 142.270 50.605,145.792 48.970,148.228 47.795 C 150.663 46.620,153.741 45.378,155.068 45.034 C 156.395 44.690,158.133 44.136,158.931 43.803 C 160.371 43.201,170.908 40.441,177.800 38.861 C 179.780 38.406,184.190 37.833,187.600 37.586 C 191.010 37.339,194.520 36.992,195.400 36.815 C 197.727 36.345,214.725 36.331,217.178 36.796 M119.800 79.483 C 87.522 83.864,75.428 122.308,99.216 144.918 L 103.311 148.810 102.966 151.105 C 102.776 152.367,102.616 158.350,102.611 164.400 C 102.599 176.499,102.443 175.618,105.306 179.600 L 106.600 181.400 107.524 180.463 C 108.233 179.743,108.697 179.588,109.523 179.795 C 110.947 180.153,110.961 180.182,110.251 181.265 L 109.638 182.200 125.786 182.000 C 140.980 181.812,143.635 181.646,141.630 181.010 C 140.376 180.611,140.626 180.039,142.402 179.244 C 143.985 178.535,143.994 178.519,143.202 177.801 C 142.439 177.111,142.400 176.575,142.400 166.767 L 142.400 156.458 143.454 155.629 C 145.037 154.384,180.125 154.325,181.656 155.565 L 182.600 156.329 182.600 166.723 C 182.600 176.298,182.541 177.181,181.855 177.939 C 181.123 178.748,181.128 178.767,182.139 179.020 C 183.712 179.415,184.352 180.371,183.399 180.905 C 182.651 181.323,182.651 181.338,183.418 181.638 C 184.359 182.006,228.193 182.098,229.551 181.735 L 230.502 181.480 229.620 180.815 L 228.738 180.150 230.374 179.412 C 231.960 178.696,231.989 178.650,231.305 177.895 C 230.670 177.193,230.600 176.088,230.600 166.723 L 230.600 156.329 231.544 155.565 C 232.443 154.837,233.364 154.800,250.622 154.800 L 268.755 154.800 269.877 155.764 L 270.998 156.729 271.142 164.392 C 271.312 173.375,271.032 176.816,270.045 177.855 C 269.373 178.563,269.406 178.620,270.872 179.277 C 272.579 180.041,272.810 180.616,271.570 181.010 C 269.565 181.646,272.219 181.812,287.394 182.000 C 302.426 182.186,303.497 182.154,303.161 181.526 C 302.252 179.830,303.848 179.042,305.587 180.327 L 306.683 181.138 308.192 179.159 C 309.022 178.071,309.940 176.510,310.233 175.690 C 310.919 173.767,311.012 155.426,310.350 152.343 C 309.781 149.690,310.353 148.526,313.449 146.038 C 337.994 126.310,327.823 86.398,296.609 79.955 C 293.242 79.260,124.756 78.810,119.800 79.483 M293.905 97.357 C 301.605 100.913,303.454 110.603,297.636 116.915 C 295.694 119.022,295.607 119.949,297.167 121.923 C 300.865 126.605,299.275 133.616,293.857 136.514 C 292.228 137.385,291.901 137.402,274.301 137.519 L 256.402 137.638 255.449 136.686 C 254.252 135.488,254.059 132.387,253.906 111.867 L 253.800 97.534 254.768 96.748 C 255.702 95.989,256.344 95.966,273.568 96.081 L 291.400 96.200 293.905 97.357 M129.418 97.382 C 130.391 98.355,130.400 98.431,130.400 105.920 C 130.400 115.172,130.228 114.867,135.447 114.891 C 140.741 114.916,140.800 114.813,140.800 105.622 C 140.800 95.994,140.206 96.639,149.228 96.473 C 160.457 96.266,159.471 94.272,158.636 115.501 C 157.650 140.598,158.736 138.000,149.229 138.000 L 142.458 138.000 141.629 136.946 C 140.888 136.003,140.800 135.347,140.800 130.728 C 140.800 123.965,140.525 123.600,135.440 123.600 C 130.202 123.600,129.931 123.941,129.633 130.896 C 129.311 138.396,129.797 138.000,120.920 138.000 C 111.386 138.000,112.208 139.106,111.866 125.820 C 111.434 109.014,111.523 98.250,112.100 97.522 C 113.363 95.930,127.849 95.812,129.418 97.382 M229.474 97.438 C 230.485 98.449,230.507 98.577,230.297 102.389 C 229.934 108.972,230.363 108.795,214.762 108.798 C 202.344 108.800,202.530 108.767,201.831 111.066 C 200.792 114.480,202.630 115.200,212.387 115.200 C 221.688 115.200,222.989 116.043,221.606 121.177 C 221.006 123.407,221.124 123.378,211.741 123.600 C 201.909 123.832,201.600 123.940,201.600 127.130 C 201.600 130.449,201.413 130.398,213.562 130.417 C 228.132 130.441,228.800 130.619,228.800 134.476 C 228.800 138.228,230.249 138.000,206.400 138.000 C 181.564 138.000,184.231 138.786,183.866 131.360 C 183.416 122.216,183.136 98.214,183.473 97.766 C 184.438 96.485,185.487 96.424,206.918 96.412 L 228.436 96.400 229.474 97.438 M275.800 106.997 C 275.580 107.070,274.936 107.231,274.369 107.355 C 271.073 108.076,271.782 115.222,275.206 115.801 C 281.381 116.844,285.849 112.530,282.489 108.769 C 281.210 107.338,277.624 106.388,275.800 106.997 M176.000 116.400 C 177.223 117.623,177.120 120.917,175.818 122.218 C 174.912 123.124,174.540 123.200,171.000 123.200 C 166.190 123.200,165.200 122.520,165.200 119.218 C 165.200 116.013,165.863 115.600,171.000 115.600 C 174.667 115.600,175.302 115.702,176.000 116.400 M246.456 116.365 C 247.247 117.006,247.400 117.496,247.400 119.400 C 247.400 122.727,246.678 123.200,241.600 123.200 C 236.741 123.200,235.994 122.757,235.700 119.704 C 235.378 116.349,236.444 115.600,241.538 115.600 C 244.854 115.600,245.668 115.726,246.456 116.365 M273.530 123.215 C 271.733 124.264,271.658 128.695,273.417 129.848 C 277.337 132.416,283.134 129.002,281.830 124.894 C 281.262 123.105,275.661 121.972,273.530 123.215 " stroke="none" fill="#e54031" fill-rule="evenodd"></path><path id="path1" d="M141.778 179.513 C 140.738 180.058,140.469 180.791,141.300 180.814 C 146.168 180.954,183.761 180.773,183.924 180.609 C 185.404 179.129,144.539 178.066,141.778 179.513 M229.922 179.640 C 229.162 180.034,228.857 180.388,229.134 180.559 C 229.455 180.758,266.215 180.977,271.900 180.814 C 272.679 180.792,272.488 180.075,271.573 179.585 C 270.091 178.793,231.463 178.843,229.922 179.640 M107.581 180.335 C 106.658 181.082,106.636 181.207,107.106 182.965 C 107.734 185.313,107.832 299.396,107.208 301.572 C 106.840 302.854,107.190 304.000,107.949 304.000 C 108.087 304.000,108.200 277.020,108.200 244.045 L 108.200 184.090 109.542 182.221 C 111.025 180.156,111.025 180.172,109.574 179.808 C 108.862 179.629,108.254 179.790,107.581 180.335 M303.257 179.956 C 302.554 180.402,302.921 181.441,304.384 183.148 L 305.539 184.497 306.048 182.796 C 306.722 180.548,305.034 178.831,303.257 179.956 M147.904 221.359 C 144.807 222.485,142.826 224.526,142.042 227.400 C 141.739 228.506,141.604 241.061,141.602 268.056 C 141.600 305.903,141.576 307.141,140.836 308.056 L 140.072 309.000 127.636 309.126 L 115.200 309.252 115.200 310.164 C 115.200 311.218,116.116 312.160,117.743 312.778 C 118.551 313.086,144.458 313.212,206.459 313.210 L 294.034 313.207 296.317 312.304 C 298.240 311.542,298.620 311.227,298.727 310.300 L 298.853 309.200 243.127 309.190 C 188.918 309.181,184.684 309.091,183.948 307.929 C 183.763 307.638,183.604 290.480,183.593 269.800 C 183.569 223.512,183.761 225.267,178.400 222.242 L 176.200 221.000 162.800 220.907 C 152.313 220.835,149.075 220.933,147.904 221.359 M220.662 223.777 C 216.264 225.365,216.200 225.682,216.200 246.000 L 216.200 263.000 217.138 264.636 C 219.044 267.962,217.724 267.800,242.871 267.800 C 272.214 267.800,269.000 270.506,269.000 245.800 C 269.000 226.160,269.034 226.425,266.298 224.529 L 264.669 223.400 243.435 223.311 C 226.153 223.238,221.914 223.325,220.662 223.777 M305.051 302.104 C 304.665 303.546,304.759 303.991,305.400 303.745 C 306.047 303.496,306.228 301.788,305.645 301.428 C 305.450 301.308,305.183 301.612,305.051 302.104 " stroke="none" fill="#3b5f76" fill-rule="evenodd"></path><path id="path2" d="M0.000 237.600 L 0.000 475.200 200.000 475.200 L 400.000 475.200 400.000 237.600 L 400.000 0.000 200.000 0.000 L 0.000 0.000 0.000 237.600 M226.600 5.848 C 229.240 6.189,233.145 6.813,235.277 7.234 C 237.409 7.655,239.776 8.000,240.536 8.000 C 241.296 8.000,244.322 8.697,247.259 9.549 C 250.197 10.400,254.130 11.493,256.000 11.976 C 269.545 15.479,291.939 24.735,297.541 29.147 C 298.344 29.779,299.990 30.794,301.200 31.404 C 303.630 32.629,312.090 38.169,314.600 40.179 C 315.480 40.884,317.280 42.193,318.600 43.089 C 324.700 47.228,344.083 65.837,348.836 72.117 C 350.466 74.271,352.644 77.151,353.675 78.517 C 359.242 85.887,368.392 99.903,368.403 101.075 C 368.405 101.254,369.200 102.789,370.169 104.487 C 371.139 106.185,372.322 108.615,372.798 109.887 C 373.273 111.159,374.006 112.830,374.425 113.600 C 377.859 119.905,383.217 135.134,385.825 146.000 C 387.669 153.685,388.010 155.375,388.390 158.712 C 388.598 160.534,388.854 162.164,388.959 162.334 C 389.285 162.862,390.470 171.964,390.816 176.600 C 391.771 189.395,390.564 219.870,389.002 222.397 C 388.861 222.624,388.593 224.838,388.406 227.315 C 388.056 231.962,386.937 238.607,385.563 244.200 C 385.130 245.960,384.501 248.840,384.164 250.600 C 383.177 255.752,377.084 274.533,372.095 287.800 C 369.455 294.819,364.670 305.235,360.794 312.400 C 359.425 314.930,356.955 319.520,355.304 322.600 C 353.654 325.680,351.989 328.650,351.603 329.200 C 351.218 329.750,350.404 331.190,349.795 332.400 C 348.567 334.838,343.006 343.303,340.992 345.800 C 340.282 346.680,338.704 349.020,337.485 351.000 C 336.267 352.980,334.219 355.975,332.935 357.655 C 330.294 361.111,324.254 369.144,321.924 372.300 C 321.072 373.455,320.213 374.400,320.017 374.400 C 319.820 374.400,317.965 376.515,315.894 379.100 C 313.824 381.685,311.802 384.070,311.403 384.400 C 311.003 384.730,309.387 386.620,307.810 388.600 C 304.382 392.905,280.864 416.548,275.783 420.796 C 273.812 422.444,269.950 425.869,267.200 428.407 C 264.450 430.946,261.570 433.459,260.800 433.992 C 260.030 434.524,258.230 435.978,256.800 437.222 C 253.871 439.770,245.590 446.143,241.923 448.670 C 240.590 449.589,238.937 450.868,238.250 451.512 C 237.562 452.156,235.200 453.915,233.000 455.420 C 230.800 456.926,228.280 458.734,227.400 459.440 C 225.134 461.256,215.908 467.049,212.703 468.667 C 207.594 471.248,203.372 470.897,197.600 467.413 C 189.628 462.601,177.701 454.356,172.512 450.071 C 169.920 447.930,166.090 444.911,164.000 443.361 C 161.910 441.812,159.368 439.926,158.351 439.172 C 154.438 436.269,150.468 432.914,147.200 429.747 C 145.330 427.935,142.180 425.201,140.200 423.672 C 135.488 420.031,109.541 394.169,105.302 388.887 C 103.488 386.627,100.692 383.478,99.090 381.889 C 96.330 379.153,93.917 376.204,89.431 370.085 C 88.349 368.608,86.369 366.030,85.031 364.356 C 76.591 353.789,70.056 344.224,63.880 333.400 C 63.001 331.860,60.979 328.620,59.386 326.200 C 55.221 319.872,47.512 304.383,43.558 294.400 C 42.468 291.650,41.020 288.230,40.340 286.800 C 38.598 283.141,35.321 274.155,33.954 269.291 C 33.319 267.032,32.167 263.228,31.395 260.838 C 30.622 258.448,29.806 255.437,29.582 254.147 C 29.357 252.856,28.649 249.730,28.008 247.200 C 26.485 241.186,25.198 234.041,24.799 229.385 C 24.623 227.332,24.375 225.483,24.248 225.278 C 23.889 224.697,22.815 215.616,22.347 209.200 C 21.794 201.632,22.163 181.456,22.946 176.400 C 23.270 174.310,23.826 170.530,24.182 168.000 C 25.290 160.114,25.529 158.746,26.727 153.400 C 30.028 138.680,34.684 124.873,39.811 114.600 C 41.239 111.740,42.405 109.272,42.403 109.115 C 42.396 108.468,50.141 94.621,53.207 89.800 C 56.815 84.127,57.607 83.010,60.600 79.364 C 62.555 76.984,64.911 73.908,68.597 68.927 C 72.896 63.118,93.505 44.183,100.800 39.340 C 103.110 37.807,106.080 35.824,107.400 34.934 C 117.298 28.259,129.917 21.523,138.400 18.385 C 147.289 15.098,155.715 12.274,158.800 11.547 C 160.670 11.107,163.990 10.200,166.178 9.532 C 168.366 8.864,171.336 8.160,172.778 7.967 C 174.220 7.775,176.840 7.353,178.600 7.031 C 184.668 5.919,188.618 5.454,194.400 5.171 C 203.036 4.749,221.023 5.127,226.600 5.848 M195.400 36.815 C 194.520 36.992,191.010 37.339,187.600 37.586 C 184.190 37.833,179.780 38.406,177.800 38.861 C 170.908 40.441,160.371 43.201,158.931 43.803 C 158.133 44.136,156.395 44.690,155.068 45.034 C 153.741 45.378,150.663 46.620,148.228 47.795 C 145.792 48.970,142.270 50.605,140.400 51.429 C 136.840 52.999,129.898 56.819,124.800 60.014 C 114.526 66.453,115.310 65.840,102.259 77.641 C 91.337 87.517,80.984 100.244,73.983 112.400 C 66.358 125.639,57.445 148.856,56.001 159.241 C 55.768 160.913,55.400 162.893,55.183 163.641 C 52.894 171.520,52.900 207.361,55.191 215.196 C 55.415 215.963,55.772 217.974,55.984 219.664 C 56.359 222.649,58.079 229.130,59.683 233.600 C 60.117 234.810,60.923 237.150,61.474 238.800 C 62.025 240.450,63.256 243.690,64.208 246.000 C 65.161 248.310,66.430 251.460,67.027 253.000 C 68.381 256.489,70.443 260.638,72.389 263.788 C 73.208 265.114,74.551 267.448,75.372 268.973 C 76.799 271.623,77.711 272.933,84.163 281.600 C 92.098 292.258,102.844 303.200,105.376 303.200 C 107.505 303.200,107.392 306.391,107.505 243.258 C 107.623 177.863,107.834 182.867,104.779 178.772 C 103.904 177.599,102.999 175.941,102.770 175.087 C 102.326 173.440,102.517 154.172,103.011 150.691 L 103.282 148.782 99.201 144.904 C 76.913 123.720,85.726 88.237,115.243 80.314 L 118.600 79.413 205.710 79.300 C 303.155 79.174,295.900 78.976,303.405 81.973 C 329.867 92.543,335.477 128.333,313.449 146.038 C 310.353 148.526,309.781 149.690,310.350 152.343 C 311.015 155.441,310.919 173.768,310.228 175.704 C 309.933 176.530,308.973 178.150,308.095 179.304 C 307.217 180.457,306.282 182.078,306.016 182.907 L 305.534 184.413 304.406 183.207 L 303.279 182.000 288.140 181.995 C 276.062 181.991,272.555 181.871,270.800 181.400 C 267.546 180.526,233.441 180.523,230.564 181.396 C 227.649 182.280,185.551 182.280,182.636 181.396 C 179.759 180.523,145.654 180.526,142.400 181.400 C 140.648 181.870,137.163 181.991,125.274 181.995 C 109.023 182.000,109.061 181.995,108.420 184.305 C 107.907 186.152,107.858 298.496,108.368 302.452 C 108.801 305.801,109.441 307.128,111.194 308.308 L 112.588 309.247 126.330 309.123 L 140.072 309.000 140.836 308.056 C 141.576 307.141,141.600 305.907,141.600 268.133 C 141.600 226.362,141.580 226.777,143.674 224.237 C 146.328 221.017,146.423 221.000,162.200 221.000 L 176.200 221.000 178.400 222.242 C 183.761 225.267,183.569 223.512,183.593 269.800 C 183.614 310.020,183.513 308.279,185.841 308.819 C 188.627 309.466,299.784 309.301,301.346 308.648 C 303.038 307.941,304.314 306.311,304.622 304.459 C 304.756 303.657,305.009 302.550,305.185 302.000 L 305.505 301.000 305.942 302.100 C 306.666 303.919,308.286 303.599,311.277 301.049 C 320.269 293.382,333.343 277.188,338.056 267.883 C 338.701 266.608,340.044 264.374,341.041 262.919 C 343.309 259.606,344.911 256.463,346.812 251.600 C 347.629 249.510,348.844 246.450,349.513 244.800 C 351.255 240.500,352.689 236.126,354.234 230.400 C 354.976 227.650,355.857 224.416,356.191 223.213 C 356.526 222.010,356.803 220.480,356.806 219.813 C 356.810 219.146,357.075 217.520,357.397 216.200 C 359.928 205.807,360.045 174.273,357.592 163.705 C 357.375 162.772,357.026 160.792,356.816 159.305 C 355.192 147.825,346.537 124.520,340.327 114.908 C 339.157 113.097,337.428 110.217,336.485 108.508 C 334.755 105.375,330.621 99.510,325.329 92.686 C 313.453 77.371,292.581 61.037,272.800 51.579 C 270.490 50.474,267.430 48.962,266.000 48.217 C 261.093 45.662,250.551 42.336,240.000 40.014 C 237.030 39.360,233.996 38.647,233.257 38.428 C 232.519 38.210,229.069 37.842,225.590 37.612 C 222.111 37.381,218.326 37.014,217.178 36.796 C 214.725 36.331,197.727 36.345,195.400 36.815 M254.768 96.748 L 253.800 97.534 253.906 111.867 C 254.059 132.387,254.252 135.488,255.449 136.686 L 256.402 137.638 274.301 137.519 C 291.901 137.402,292.228 137.385,293.857 136.514 C 299.275 133.616,300.865 126.605,297.167 121.923 C 295.607 119.949,295.694 119.022,297.636 116.915 C 303.454 110.603,301.605 100.913,293.905 97.357 L 291.400 96.200 273.568 96.081 C 256.344 95.966,255.702 95.989,254.768 96.748 M113.200 96.678 C 111.448 97.304,111.246 101.719,111.866 125.820 C 112.208 139.106,111.386 138.000,120.920 138.000 C 129.797 138.000,129.311 138.396,129.633 130.896 C 129.931 123.941,130.202 123.600,135.440 123.600 C 140.525 123.600,140.800 123.965,140.800 130.728 C 140.800 135.347,140.888 136.003,141.629 136.946 L 142.458 138.000 149.229 138.000 C 158.736 138.000,157.650 140.598,158.636 115.501 C 159.471 94.272,160.457 96.266,149.228 96.473 C 140.206 96.639,140.800 95.994,140.800 105.622 C 140.800 114.813,140.741 114.916,135.447 114.891 C 130.228 114.867,130.400 115.172,130.400 105.920 C 130.400 95.754,131.021 96.389,121.118 96.432 C 117.093 96.449,113.530 96.560,113.200 96.678 M184.600 96.878 C 183.171 97.688,183.143 98.033,183.379 112.200 C 183.716 132.426,183.947 136.347,184.860 137.260 C 185.561 137.961,186.692 138.000,206.400 138.000 C 230.249 138.000,228.800 138.228,228.800 134.476 C 228.800 130.619,228.132 130.441,213.562 130.417 C 201.413 130.398,201.600 130.449,201.600 127.130 C 201.600 123.940,201.909 123.832,211.741 123.600 C 221.124 123.378,221.006 123.407,221.606 121.177 C 222.989 116.043,221.688 115.200,212.387 115.200 C 202.630 115.200,200.792 114.480,201.831 111.066 C 202.530 108.767,202.344 108.800,214.762 108.798 C 230.363 108.795,229.934 108.972,230.297 102.389 C 230.507 98.577,230.485 98.449,229.474 97.438 L 228.436 96.400 206.918 96.412 C 191.634 96.421,185.168 96.556,184.600 96.878 M279.589 107.180 C 287.421 108.691,283.126 117.139,275.206 115.801 C 271.782 115.222,271.073 108.076,274.369 107.355 C 274.936 107.231,275.580 107.070,275.800 106.997 C 276.498 106.764,277.745 106.824,279.589 107.180 M166.000 116.400 C 164.777 117.623,164.880 120.917,166.182 122.218 C 167.088 123.124,167.460 123.200,171.000 123.200 C 175.810 123.200,176.800 122.520,176.800 119.218 C 176.800 116.013,176.137 115.600,171.000 115.600 C 167.333 115.600,166.698 115.702,166.000 116.400 M236.534 116.630 C 235.626 117.538,235.527 117.901,235.700 119.704 C 235.994 122.757,236.741 123.200,241.600 123.200 C 246.678 123.200,247.400 122.727,247.400 119.400 C 247.400 116.064,246.685 115.600,241.538 115.600 C 237.801 115.600,237.502 115.662,236.534 116.630 M280.392 123.396 C 281.629 124.036,282.136 125.104,282.083 126.964 C 281.964 131.133,272.947 131.920,272.179 127.829 C 271.393 123.638,276.025 121.137,280.392 123.396 M143.454 155.629 L 142.400 156.458 142.400 166.759 L 142.400 177.061 143.432 178.030 L 144.464 179.000 162.621 179.000 L 180.778 179.000 181.689 178.089 C 182.590 177.187,182.600 177.068,182.600 166.754 L 182.600 156.329 181.656 155.565 C 180.125 154.325,145.037 154.384,143.454 155.629 M231.544 155.565 L 230.600 156.329 230.600 166.754 C 230.600 177.067,230.610 177.187,231.511 178.089 L 232.422 179.000 249.711 179.123 C 273.193 179.289,271.000 180.589,271.000 166.504 L 271.000 156.730 269.878 155.765 L 268.755 154.800 250.622 154.800 C 233.364 154.800,232.443 154.837,231.544 155.565 M266.298 224.529 C 269.034 226.425,269.000 226.160,269.000 245.800 C 269.000 270.506,272.214 267.800,242.871 267.800 C 217.724 267.800,219.044 267.962,217.138 264.636 L 216.200 263.000 216.200 246.000 C 216.200 220.853,213.402 223.184,243.435 223.311 L 264.669 223.400 266.298 224.529 M121.300 313.481 C 119.581 313.815,120.290 314.715,124.326 317.323 C 129.861 320.899,135.817 324.177,140.923 326.456 C 143.825 327.752,147.010 329.244,148.000 329.773 C 156.213 334.160,173.428 338.567,191.317 340.862 C 193.110 341.092,200.498 341.194,208.717 341.103 C 228.923 340.878,240.090 338.924,259.581 332.200 C 269.786 328.679,294.036 315.103,292.631 313.698 C 292.321 313.388,122.883 313.174,121.300 313.481 " stroke="none" fill="#f6f6f6" fill-rule="evenodd"></path></g></svg>